<svg width="14" height="12" viewBox="0 0 14 12" version="1.1" xmlns="http://www.w3.org/2000/svg" xmlns:xlink="http://www.w3.org/1999/xlink">
<title>Vector</title>
<desc>Created using Figma</desc>
<g id="Canvas" transform="translate(-4388 -4091)">
<g id="Vector">
<use xlink:href="#path0_fill" transform="translate(4388.23 4091.67)" fill="#808080"/>
</g>
</g>
<defs>
<path id="path0_fill" d="M 11.94 1.84025C 12.2106 1.80393 12.478 1.7471 12.74 1.67026C 13.0046 1.59421 13.265 1.50408 13.52 1.40025C 13.3403 1.67165 13.1361 1.92605 12.91 2.16026C 12.6718 2.41072 12.4106 2.63837 12.13 2.84025L 12.13 3.19026C 12.1307 3.81621 12.0603 4.44022 11.92 5.05026C 11.7716 5.67873 11.5465 6.28661 11.25 6.86025C 10.9629 7.45566 10.5888 8.00502 10.14 8.49026C 9.66011 9.00499 9.11559 9.4554 8.52 9.83026C 7.90682 10.2395 7.23141 10.5469 6.52 10.7403C 5.7774 10.9446 5.01015 11.0455 4.23997 11.0403C 3.48239 11.0435 2.7282 10.9391 1.99998 10.7303C 1.29184 10.5232 0.617977 10.2132 -1.95312e-05 9.81026L 0.27 9.81026L 0.670024 9.81026C 1.29515 9.81568 1.91684 9.7177 2.50999 9.52025C 3.09377 9.31822 3.63839 9.01715 4.11998 8.63025C 3.82703 8.61923 3.5373 8.56532 3.25999 8.47025C 2.71944 8.2807 2.24887 7.93211 1.91001 7.47025C 1.74444 7.23976 1.61932 6.98275 1.54002 6.71026C 1.60282 6.72192 1.66717 6.72192 1.72996 6.71026L 2.03001 6.71026L 2.41001 6.71026C 2.53202 6.69877 2.65258 6.67533 2.77 6.64026C 2.45657 6.57694 2.1558 6.46205 1.87999 6.30026C 1.61332 6.13844 1.37935 5.92816 1.19004 5.68025C 0.984466 5.43429 0.825127 5.15307 0.719951 4.85026C 0.61373 4.52781 0.563107 4.18967 0.570049 3.85026C 0.748232 3.95828 0.939831 4.04234 1.14 4.10026C 1.35507 4.162 1.57655 4.19891 1.80003 4.21026C 1.41644 3.95689 1.10056 3.6136 0.879985 3.21026C 0.670542 2.8093 0.564081 2.36258 0.570049 1.91026C 0.570561 1.67012 0.604187 1.43119 0.670024 1.20025C 0.738287 0.962498 0.83561 0.734098 0.959941 0.520254C 1.32077 0.960634 1.72264 1.36579 2.16001 1.73026C 2.57412 2.07808 3.02712 2.37673 3.50999 2.62026C 3.99116 2.85952 4.49767 3.04401 5.02 3.17026C 5.561 3.30154 6.11375 3.37858 6.67002 3.40025C 6.63501 3.30679 6.61144 3.2094 6.59996 3.11025C 6.54775 2.63591 6.60952 2.15596 6.78001 1.71026C 6.92094 1.37239 7.12838 1.06632 7.39 0.810255C 7.65116 0.557377 7.95614 0.354074 8.29002 0.210256C 8.63522 0.0666206 9.00613 -0.00484862 9.37999 0.000253296C 9.75798 -0.00393608 10.1327 0.0710037 10.48 0.220255C 10.8183 0.368706 11.1216 0.586775 11.37 0.860254C 11.6691 0.798847 11.9632 0.715284 12.25 0.610254C 12.5538 0.501341 12.8481 0.367556 13.13 0.210256C 13.0421 0.526416 12.8926 0.822082 12.69 1.08026C 12.49 1.37842 12.2355 1.63625 11.94 1.84025L 11.94 1.84025Z"/>
</defs>
</svg>
