<svg width="8" height="13" viewBox="0 0 8 13" version="1.1" xmlns="http://www.w3.org/2000/svg" xmlns:xlink="http://www.w3.org/1999/xlink">
<title>Vector</title>
<desc>Created using Figma</desc>
<g id="Canvas" transform="translate(-4412 -4091)">
<g id="Vector">
<use xlink:href="#path0_fill" transform="translate(4412.86 4091.25)" fill="#808080"/>
</g>
</g>
<defs>
<path id="path0_fill" d="M 6.74999 4.51007L 6.74999 6.75007L 4.49999 6.75007L 4.49999 11.9901L 2.24999 11.9901L 2.24999 6.75007L -1.46484e-05 6.75007L -1.46484e-05 4.51007L 2.24999 4.51007L 2.24999 3.56007C 2.25413 3.07932 2.32476 2.60145 2.45995 2.14007C 2.57622 1.69345 2.78772 1.27727 3.07994 0.92007C 3.34428 0.625514 3.66814 0.390346 4.03001 0.230072C 4.39008 0.0755884 4.77823 -0.00271938 5.17003 7.20871e-05L 6.74999 7.20871e-05L 6.74999 2.25007L 5.14 2.25007C 5.05164 2.24872 4.96396 2.26513 4.88207 2.29832C 4.80017 2.33152 4.72568 2.38082 4.66319 2.44331C 4.60071 2.50579 4.55149 2.58019 4.5183 2.66209C 4.4851 2.74398 4.46861 2.83171 4.46996 2.92007L 4.46996 4.50007L 6.74999 4.51007Z"/>
</defs>
</svg>
