<svg width="10" height="13" viewBox="0 0 10 13" version="1.1" xmlns="http://www.w3.org/2000/svg" xmlns:xlink="http://www.w3.org/1999/xlink">
<title>Vector</title>
<desc>Created using Figma</desc>
<g id="Canvas" transform="translate(-4433 -4091)">
<g id="Vector">
<use xlink:href="#path0_fill" transform="translate(4433.84 4091.84)" fill="#808080"/>
</g>
</g>
<defs>
<path id="path0_fill" d="M 4.73034 0.000246216C 5.32227 -0.00588965 5.90988 0.102781 6.46045 0.320246C 6.95639 0.512646 7.41112 0.797723 7.80041 1.16025C 8.16381 1.50484 8.45302 1.91998 8.65039 2.38025C 8.84736 2.83131 8.94952 3.31806 8.95044 3.81025C 8.95779 4.42595 8.87354 5.03933 8.70044 5.63025C 8.54702 6.15384 8.29968 6.64516 7.97046 7.08024C 7.66883 7.49355 7.27952 7.83504 6.83044 8.08024C 6.37353 8.3172 5.86499 8.43744 5.35034 8.43025C 5.00089 8.43572 4.6561 8.34952 4.35034 8.18025C 4.08774 8.04859 3.86903 7.84366 3.72046 7.59025C 3.44046 8.67025 3.2837 9.28691 3.25036 9.44024C 3.10744 9.95731 2.87387 10.4449 2.56042 10.8802L 2.03039 11.6202C 2.01778 11.6308 2.00181 11.6366 1.98535 11.6366C 1.96889 11.6366 1.95303 11.6308 1.94043 11.6202C 1.9241 11.6149 1.90925 11.6057 1.89709 11.5936C 1.88493 11.5814 1.87574 11.5666 1.87036 11.5502C 1.87036 11.4769 1.84039 11.1702 1.78039 10.6302C 1.73449 10.0845 1.77156 9.5349 1.89038 9.00025C 1.92371 8.87358 1.98711 8.61025 2.08044 8.21025L 2.37036 6.98025L 2.75036 5.36025C 2.62038 5.02496 2.54937 4.66973 2.5404 4.31025C 2.52805 3.86957 2.66164 3.43716 2.92041 3.08024C 3.02097 2.93089 3.1564 2.80824 3.31494 2.72287C 3.47347 2.63751 3.65039 2.59199 3.83044 2.59025C 3.96114 2.5807 4.09222 2.60302 4.2124 2.65527C 4.33258 2.70752 4.43822 2.78815 4.52038 2.89025C 4.6738 3.09096 4.75484 3.33765 4.75036 3.59025C 4.73682 3.96638 4.66256 4.33784 4.53039 4.69024C 4.38373 5.11691 4.25705 5.54025 4.15039 5.96025C 4.10736 6.11677 4.10309 6.28142 4.13794 6.43996C 4.17278 6.59851 4.24565 6.74619 4.35034 6.87024C 4.45424 6.99353 4.58474 7.09174 4.73193 7.15755C 4.87912 7.22335 5.03928 7.25504 5.20044 7.25025C 5.52886 7.23862 5.84708 7.13369 6.11804 6.94774C 6.38899 6.76179 6.60138 6.50251 6.73034 6.20025C 7.13362 5.42998 7.33335 4.5694 7.31042 3.70025C 7.31995 3.3633 7.26206 3.02784 7.14013 2.71358C 7.01821 2.39932 6.83463 2.1126 6.60034 1.87025C 6.32509 1.61067 5.99908 1.41091 5.64282 1.28355C 5.28656 1.15619 4.90782 1.104 4.53039 1.13025C 4.0818 1.11322 3.63484 1.19382 3.22046 1.36648C 2.80608 1.53913 2.43415 1.79973 2.13037 2.13025C 1.5555 2.72989 1.23633 3.52957 1.24035 4.36025C 1.23298 4.61882 1.27366 4.87652 1.36035 5.12024C 1.43879 5.32168 1.5467 5.5104 1.68042 5.68025C 1.73477 5.72932 1.77601 5.7912 1.80041 5.86025C 1.81607 5.92261 1.81607 5.98788 1.80041 6.05025C 1.76776 6.13836 1.74108 6.22856 1.72046 6.32025L 1.6604 6.59025C 1.65378 6.62554 1.6396 6.65899 1.61889 6.68833C 1.59819 6.71766 1.57144 6.74219 1.5404 6.76024C 1.50769 6.77616 1.4718 6.78443 1.43542 6.78443C 1.39904 6.78443 1.36316 6.77616 1.33044 6.76024C 0.88085 6.568 0.522681 6.20984 0.330441 5.76024C 0.105216 5.27145 -0.00762784 4.73838 0.000362674 4.20025C 0.00481451 3.69874 0.106753 3.20288 0.300411 2.74025C 0.508651 2.23836 0.814604 1.78286 1.20044 1.40025C 1.6258 0.971309 2.1323 0.631365 2.69043 0.400248C 3.33773 0.134813 4.03073 -0.00108736 4.73034 0.000246216L 4.73034 0.000246216Z"/>
</defs>
</svg>
